<svg width="718" height="132" viewBox="0 0 718 132" fill="none" xmlns="http://www.w3.org/2000/svg">
<g filter="url(#filter0_d_825_2188)">
<path d="M170.067 105.025C158.27 105.025 148.872 101.575 141.871 94.6828C134.864 87.7907 131.367 78.1802 131.367 65.8512C131.367 53.5222 134.968 44.0668 142.168 37.0712C149.369 30.0683 158.671 26.5742 170.073 26.5742C176.846 26.5742 182.16 27.867 186.002 30.4376C189.976 33.0822 191.966 36.8127 191.966 41.6143C191.966 44.8202 191.068 47.5017 189.278 49.6588C187.488 51.8158 185.187 52.8943 182.388 52.8943C180.889 52.8943 179.064 52.5619 176.915 51.9044C174.766 51.247 172.907 50.9146 171.345 50.9146C167.503 50.9146 164.213 52.1851 161.477 54.7263C158.74 57.2674 157.372 60.9757 157.372 65.8512C157.372 70.7266 158.706 74.4201 161.38 76.9243C164.047 79.4286 167.309 80.6844 171.151 80.6844C172.713 80.6844 174.621 80.3519 176.867 79.6945C179.112 79.0297 180.985 78.7046 182.485 78.7046C185.284 78.7046 187.585 79.7831 189.375 81.9402C191.165 84.0972 192.063 86.7787 192.063 89.9847C192.063 94.934 189.976 98.7235 185.809 101.375C182.029 103.813 176.784 105.032 170.073 105.032L170.067 105.025Z" fill="#FD81BF" fill-opacity="0.8" stroke="#5C002E" stroke-opacity="0.8" stroke-width="3"/>
<path d="M209.263 103.956C205.918 103.956 203.306 102.974 201.447 101.009C199.581 99.0438 198.648 96.3032 198.648 92.7869V50.4739C198.648 46.9577 199.581 44.2171 201.447 42.2521C203.313 40.2872 205.918 39.3047 209.263 39.3047C212.608 39.3047 215.116 40.2872 216.962 42.2521C218.8 44.2171 219.719 46.9577 219.719 50.4739V60.8527H234.203V50.4739C234.203 46.9577 235.136 44.2171 237.002 42.2521C238.868 40.2872 241.473 39.3047 244.818 39.3047C248.163 39.3047 250.671 40.2872 252.517 42.2521C254.355 44.2171 255.274 46.9577 255.274 50.4739V92.7869C255.274 96.3032 254.355 99.0512 252.517 101.009C250.678 102.974 248.114 103.956 244.818 103.956C241.522 103.956 238.861 102.974 237.002 101.009C235.136 99.0438 234.203 96.3032 234.203 92.7869V82.2308H219.719V92.7869C219.719 96.3032 218.8 99.0512 216.962 101.009C215.123 102.974 212.559 103.956 209.263 103.956Z" fill="#FD81BF" fill-opacity="0.8" stroke="#5C002E" stroke-opacity="0.8" stroke-width="3"/>
<path d="M298.831 103.971H275.128C271.562 103.971 268.818 102.944 266.897 100.891C264.976 98.8369 264.016 95.9043 264.016 92.0925V51.1831C264.016 47.3713 264.976 44.4387 266.897 42.3851C268.818 40.3315 271.562 39.3047 275.128 39.3047H298.831C301.243 39.3047 303.15 40.0508 304.553 41.5504C305.956 43.0425 306.654 45.0814 306.654 47.6668C306.654 50.2523 305.956 52.3576 304.553 53.8276C303.157 55.2977 301.25 56.029 298.831 56.029H285.086V62.8915H296.032C298.61 62.8915 300.628 63.6819 302.079 65.2702C303.53 66.851 304.263 68.9932 304.263 71.6895C304.263 74.3858 303.537 76.6019 302.079 78.1532C300.621 79.7045 298.61 80.4875 296.032 80.4875H285.086V87.2614H298.831C301.243 87.2614 303.15 88.0075 304.553 89.5071C305.956 90.9993 306.654 93.0381 306.654 95.6236C306.654 98.209 305.956 100.314 304.553 101.784C303.157 103.254 301.25 103.986 298.831 103.986V103.971Z" fill="#FD81BF" fill-opacity="0.8" stroke="#5C002E" stroke-opacity="0.8" stroke-width="3"/>
<path d="M324.146 103.969C320.801 103.969 318.189 102.986 316.33 101.021C314.464 99.0563 313.531 96.3157 313.531 92.7995V51.0996C313.531 47.2879 314.492 44.3404 316.413 42.2573C318.334 40.1741 321.078 39.1621 324.643 39.2212L337.649 39.3098C346.536 39.3689 353.205 41.26 357.648 44.9831C362.092 48.7062 364.317 54.1209 364.317 61.2124C364.317 65.2015 363.536 68.4887 361.975 71.0668C360.413 73.6449 358.367 75.4621 355.845 76.5184V76.6957C358.699 77.6339 360.945 79.5693 362.596 82.5019C364.241 85.4346 365.064 88.515 365.064 91.7357C365.064 95.9611 363.951 99.1154 361.733 101.191C359.507 103.274 356.833 104.316 353.709 104.316C346.799 104.316 343.337 100.741 343.337 93.5825C343.337 91.4698 342.95 89.6378 342.183 88.0865C341.415 86.5352 340.096 85.7522 338.23 85.7522H334.609V92.7921C334.609 96.3083 333.689 99.0563 331.851 101.014C330.013 102.979 327.449 103.961 324.153 103.961L324.146 103.969ZM334.595 57.8661V69.6558H338.382C341.07 69.6558 342.411 67.6022 342.411 63.495C342.411 59.7424 340.434 57.8661 336.488 57.8661H334.595Z" fill="#FD81BF" fill-opacity="0.8" stroke="#5C002E" stroke-opacity="0.8" stroke-width="3"/>
<path d="M383.138 103.969C379.793 103.969 377.181 102.986 375.322 101.021C373.456 99.0563 372.523 96.3157 372.523 92.7995V51.0996C372.523 47.2879 373.484 44.3404 375.405 42.2573C377.326 40.1741 380.07 39.1621 383.636 39.2212L396.641 39.3098C405.528 39.3689 412.197 41.26 416.641 44.9831C421.084 48.7062 423.309 54.1209 423.309 61.2124C423.309 65.2015 422.528 68.4887 420.967 71.0668C419.405 73.6449 417.359 75.4621 414.837 76.5184V76.6957C417.691 77.6339 419.937 79.5693 421.589 82.5019C423.233 85.4346 424.056 88.515 424.056 91.7357C424.056 95.9611 422.943 99.1154 420.725 101.191C418.5 103.274 415.825 104.316 412.702 104.316C405.791 104.316 402.329 100.741 402.329 93.5825C402.329 91.4698 401.942 89.6378 401.175 88.0865C400.408 86.5352 399.088 85.7522 397.222 85.7522H393.601V92.7921C393.601 96.3083 392.682 99.0563 390.843 101.014C389.005 102.979 386.441 103.961 383.145 103.961L383.138 103.969ZM393.587 57.8661V69.6558H397.374C400.062 69.6558 401.403 67.6022 401.403 63.495C401.403 59.7424 399.426 57.8661 395.48 57.8661H393.587Z" fill="#FD81BF" fill-opacity="0.8" stroke="#5C002E" stroke-opacity="0.8" stroke-width="3"/>
<path d="M452.602 103.964C449.036 103.964 446.265 102.922 444.289 100.839C442.312 98.7557 441.324 95.8378 441.324 92.0852V81.7064L428.733 56.812C427.254 53.9384 426.508 51.1831 426.508 48.5385C426.508 45.8939 427.372 43.5522 429.099 41.8532C430.827 40.1542 433.28 39.3047 436.466 39.3047C438.988 39.3047 440.951 39.9547 442.354 41.2401C443.75 42.5328 445.277 45.0814 446.922 48.8931L452.436 62.2636H452.602L457.951 48.8931C459.596 45.0814 461.116 42.5328 462.519 41.2401C463.915 39.9474 465.877 39.3047 468.407 39.3047C471.586 39.3047 474.046 40.1542 475.773 41.8532C477.501 43.5522 478.365 45.7831 478.365 48.5385C478.365 51.2939 477.625 53.9384 476.14 56.812L463.714 81.7064V92.0852C463.714 95.8378 462.74 98.7557 460.791 100.839C458.842 102.922 456.113 103.964 452.602 103.964Z" fill="#FD81BF" fill-opacity="0.8" stroke="#5C002E" stroke-opacity="0.8" stroke-width="3"/>
<path d="M520.861 104.042H498.091C493.855 104.042 490.6 102.823 488.319 100.386C486.039 97.948 484.898 94.4687 484.898 89.9404V40.521C484.898 36.34 486.004 33.0897 488.222 30.7554C490.434 28.4211 493.53 27.2539 497.51 27.2539C501.491 27.2539 504.462 28.4211 506.646 30.7554C508.83 33.0897 509.922 36.3474 509.922 40.521V78.653H520.868C524.579 78.653 527.482 79.7832 529.569 82.051C531.656 84.3115 532.699 87.4288 532.699 91.4031C532.699 95.3773 531.656 98.4725 529.569 100.703C527.482 102.934 524.586 104.05 520.868 104.05L520.861 104.042Z" fill="#55CBF0" fill-opacity="0.58" stroke="#22628B" stroke-opacity="0.8" stroke-width="3"/>
<path d="M572.394 103.971H548.69C545.125 103.971 542.381 102.944 540.46 100.891C538.539 98.8369 537.578 95.9043 537.578 92.0925V51.1831C537.578 47.3713 538.539 44.4387 540.46 42.3851C542.381 40.3315 545.125 39.3047 548.69 39.3047H572.394C574.806 39.3047 576.713 40.0508 578.116 41.5504C579.519 43.0425 580.216 45.0814 580.216 47.6668C580.216 50.2523 579.519 52.3576 578.116 53.8276C576.72 55.2977 574.812 56.029 572.394 56.029H558.649V62.8915H569.595C572.173 62.8915 574.19 63.6819 575.642 65.2702C577.093 66.851 577.825 68.9932 577.825 71.6895C577.825 74.3858 577.1 76.6019 575.642 78.1532C574.184 79.7045 572.173 80.4875 569.595 80.4875H558.649V87.2614H572.394C574.806 87.2614 576.713 88.0075 578.116 89.5071C579.519 90.9993 580.216 93.0381 580.216 95.6236C580.216 98.209 579.519 100.314 578.116 101.784C576.72 103.254 574.812 103.986 572.394 103.986V103.971Z" fill="#55CBF0" fill-opacity="0.58"/>
<path d="M577.028 100.751C576.065 101.766 574.75 102.371 572.941 102.471H572.394H548.69C545.421 102.471 543.121 101.539 541.555 99.8658C539.975 98.1764 539.078 95.6613 539.078 92.0925V51.1831C539.078 47.6143 539.975 45.0992 541.555 43.4098C543.121 41.7361 545.421 40.8047 548.69 40.8047H572.394C574.471 40.8047 575.952 41.4331 577.02 42.5751L577.023 42.5778C578.099 43.723 578.716 45.3569 578.716 47.6668C578.716 49.9921 578.092 51.6802 577.031 52.792L577.028 52.7947C575.971 53.9083 574.489 54.529 572.394 54.529H558.649H557.149V56.029V62.8915V64.3915H558.649H569.595C571.845 64.3915 573.425 65.0676 574.534 66.282L574.537 66.2846C575.675 67.5244 576.325 69.2714 576.325 71.6895C576.325 74.1276 575.672 75.9313 574.549 77.1258C573.43 78.3164 571.847 78.9875 569.595 78.9875H558.649H557.149V80.4875V87.2614V88.7614H558.649H572.394C574.471 88.7614 575.952 89.3898 577.02 90.5318L577.023 90.5345C578.099 91.6797 578.716 93.3136 578.716 95.6236C578.716 97.9488 578.092 99.637 577.031 100.749L577.028 100.751Z" stroke="#22628B" stroke-opacity="0.8" stroke-width="3"/>
<path d="M598.333 103.956C594.989 103.956 592.376 102.974 590.518 101.009C588.652 99.0438 587.719 96.3032 587.719 92.7869V50.4739C587.719 46.9577 588.652 44.2171 590.518 42.2521C592.383 40.2872 594.989 39.3047 598.333 39.3047C600.524 39.3047 602.328 39.9326 603.724 41.1958C605.12 42.459 607.055 44.845 609.529 48.3686C609.86 48.8414 610.102 49.1886 610.268 49.425L622.368 66.4004H622.534V50.4739C622.534 46.9577 623.467 44.2171 625.333 42.2521C627.199 40.2872 629.804 39.3047 633.149 39.3047C636.494 39.3047 639.002 40.2872 640.84 42.2521C642.679 44.2171 643.598 46.9577 643.598 50.4739V92.7869C643.598 96.3032 642.665 99.0512 640.799 101.009C638.933 102.974 636.328 103.956 632.983 103.956C630.35 103.956 628.166 103.225 626.439 101.755C624.711 100.292 622.472 97.6476 619.729 93.8359L608.948 78.7072H608.782V92.7796C608.782 96.2958 607.863 99.0438 606.025 101.001C604.187 102.966 601.623 103.949 598.327 103.949L598.333 103.956Z" fill="#55CBF0" fill-opacity="0.58"/>
<path d="M598.327 102.449H597.858C595.066 102.361 593.038 101.49 591.607 99.9779L591.605 99.9758C590.076 98.3651 589.219 96.0372 589.219 92.7869V50.4739C589.219 47.2237 590.076 44.8958 591.605 43.285C593.124 41.6856 595.297 40.8047 598.333 40.8047C600.221 40.8047 601.644 41.3371 602.717 42.308C603.978 43.4492 605.832 45.7136 608.301 49.2301C608.466 49.4655 608.609 49.6697 608.731 49.8449L608.791 49.9304C608.887 50.0681 608.97 50.187 609.04 50.2865L609.04 50.2865L609.047 50.2956L621.147 67.2711L621.596 67.9004H622.368H622.534H624.034V66.4004V50.4739C624.034 47.2237 624.891 44.8958 626.421 43.285C627.94 41.6856 630.112 40.8047 633.149 40.8047C636.174 40.8047 638.249 41.6781 639.745 43.2769C641.251 44.8871 642.098 47.218 642.098 50.4739V92.7869C642.098 96.039 641.24 98.3721 639.713 99.9738L639.711 99.9759C638.193 101.575 636.02 102.456 632.983 102.456C630.644 102.456 628.823 101.814 627.411 100.612L627.408 100.61C625.829 99.2731 623.679 96.7566 620.948 92.9629C620.948 92.9618 620.947 92.9607 620.946 92.9596L610.17 77.8367L609.721 77.2072H608.948H608.782H607.282V78.7072V92.7796C607.282 96.0373 606.435 98.3734 604.931 99.9745L604.93 99.9766C603.437 101.572 601.308 102.449 598.327 102.449Z" stroke="#22628B" stroke-opacity="0.8" stroke-width="3"/>
<path d="M676.904 103.971H663.573C660.007 103.971 657.264 102.944 655.343 100.891C653.421 98.8369 652.461 95.9043 652.461 92.0925V51.1831C652.461 47.3713 653.421 44.4387 655.343 42.3851C657.264 40.3315 660.007 39.3047 663.573 39.3047H676.904C687.276 39.3047 695.217 42.193 700.731 47.9697C706.246 53.7464 709.003 61.6505 709.003 71.6821C709.003 81.7137 706.26 89.5292 700.773 95.3059C695.286 101.083 687.332 103.971 676.904 103.971ZM673.531 58.6661V84.6169H677.726C680.746 84.6169 683.075 83.531 684.72 81.3592C686.364 79.1874 687.187 75.9666 687.187 71.6821C687.187 67.3976 686.309 64.0882 684.554 61.9165C682.798 59.7447 680.525 58.6588 677.726 58.6588H673.531V58.6661Z" fill="#55CBF0" fill-opacity="0.58"/>
<path d="M672.031 84.6169V86.1169H673.531H677.726C681.158 86.1169 683.954 84.8548 685.915 82.2648C687.842 79.7212 688.687 76.1194 688.687 71.6821C688.687 67.2369 687.783 63.5261 685.72 60.9736C683.68 58.449 680.977 57.1588 677.726 57.1588H673.531H672.031V58.6588V58.6661V84.6169ZM676.904 102.471H663.573C660.304 102.471 658.004 101.539 656.438 99.8658C654.858 98.1764 653.961 95.6613 653.961 92.0925V51.1831C653.961 47.6143 654.858 45.0992 656.438 43.4098C658.004 41.7361 660.304 40.8047 663.573 40.8047H676.904C686.995 40.8047 694.493 43.6069 699.646 49.0055C704.831 54.4363 707.503 61.9328 707.503 71.6821C707.503 81.4292 704.846 88.8399 699.685 94.2729C694.562 99.6671 687.054 102.471 676.904 102.471Z" stroke="#22628B" stroke-opacity="0.8" stroke-width="3"/>
</g>
<path d="M67.144 77.179L38.9902 20.38V68.61H27.2422V13.8794C27.2422 8.76013 30.3658 4.4978 35.0097 3.26416C39.6605 2.03052 44.2837 4.23925 46.5227 8.76013L77.5306 71.3063L67.1509 77.1864L67.144 77.179Z" fill="#006937" stroke="black" stroke-width="2"/>
<path d="M61.6219 9.65843L61.6224 9.65803C68.3801 4.21505 76.7721 1 85.8663 1C94.9605 1 103.353 4.21505 110.11 9.65803L110.111 9.65843C113.075 12.0431 113.075 16.8551 110.111 19.2397L110.11 19.2401C103.353 24.6831 94.9605 27.8981 85.8663 27.8981C76.7721 27.8981 68.3801 24.6831 61.6224 19.2401L61.6219 19.2397C58.6573 16.8551 58.6573 12.0431 61.6219 9.65843Z" fill="#006937" stroke="black" stroke-width="2"/>
<path d="M89.3059 20.1565C82.7063 13.1019 74.4274 8.9282 65.8445 7.63546C61.553 6.99279 57.8696 10.9301 58.4709 15.5175C59.6802 24.6922 63.5847 33.5345 70.1843 40.5965C76.7839 47.6511 85.0628 51.8248 93.6458 53.1175C97.9373 53.7602 101.621 49.8229 101.019 45.2356C99.81 36.0608 95.9055 27.2185 89.3059 20.1565Z" fill="#009247" stroke="black" stroke-width="2"/>
<path d="M33.0358 130.328C15.856 130.328 1.88281 115.392 1.88281 97.0274C1.88281 78.6632 15.856 63.7266 33.0358 63.7266C50.2155 63.7266 64.1887 78.6632 64.1887 97.0274C64.1887 115.392 50.2155 130.328 33.0358 130.328Z" fill="#C1272D" stroke="black" stroke-width="2"/>
<path d="M33.1381 120.544C45.0152 120.544 54.6434 110.203 54.6434 97.4459C54.6434 84.6891 45.0152 74.3477 33.1381 74.3477C21.2611 74.3477 11.6328 84.6891 11.6328 97.4459C11.6328 110.203 21.2611 120.544 33.1381 120.544Z" fill="#EC2027"/>
<path d="M83.1764 130.418C65.9967 130.418 52.0234 115.481 52.0234 97.1172C52.0234 78.753 65.9967 63.8164 83.1764 63.8164C100.356 63.8164 114.329 78.753 114.329 97.1172C114.329 115.481 100.356 130.418 83.1764 130.418Z" fill="#C1272D" stroke="black" stroke-width="2"/>
<path d="M82.5139 118.952C93.5111 118.952 102.426 109.324 102.426 97.4467C102.426 85.5697 93.5111 75.9414 82.5139 75.9414C71.5166 75.9414 62.6016 85.5697 62.6016 97.4467C62.6016 109.324 71.5166 118.952 82.5139 118.952Z" fill="#E53D49"/>
<g opacity="0.8">
<path d="M72.5924 97.6825C71.0651 97.6825 69.8281 96.3602 69.8281 94.7277C69.8281 86.9934 75.7159 80.707 82.9444 80.707C84.4717 80.707 85.7087 82.0293 85.7087 83.6619C85.7087 85.2944 84.4717 86.6167 82.9444 86.6167C78.7566 86.6167 75.3566 90.2585 75.3566 94.7277C75.3566 96.3602 74.1196 97.6825 72.5924 97.6825Z" fill="#FBDCE9"/>
</g>
<g opacity="0.8">
<path d="M20.5064 97.7098C18.9792 97.7098 17.7422 96.3875 17.7422 94.755C17.7422 87.0208 23.6231 80.7344 30.8585 80.7344C32.3857 80.7344 33.6227 82.0567 33.6227 83.6892C33.6227 85.3217 32.3857 86.644 30.8585 86.644C26.6707 86.644 23.2707 90.2858 23.2707 94.755C23.2707 96.3875 22.0337 97.7098 20.5064 97.7098Z" fill="#FBDCE9"/>
</g>
<defs>
<filter id="filter0_d_825_2188" x="128.867" y="24.0742" width="589.133" height="91.457" filterUnits="userSpaceOnUse" color-interpolation-filters="sRGB">
<feFlood flood-opacity="0" result="BackgroundImageFix"/>
<feColorMatrix in="SourceAlpha" type="matrix" values="0 0 0 0 0 0 0 0 0 0 0 0 0 0 0 0 0 0 127 0" result="hardAlpha"/>
<feOffset dx="4" dy="4"/>
<feGaussianBlur stdDeviation="2.5"/>
<feComposite in2="hardAlpha" operator="out"/>
<feColorMatrix type="matrix" values="0 0 0 0 0 0 0 0 0 0 0 0 0 0 0 0 0 0 0.8 0"/>
<feBlend mode="normal" in2="BackgroundImageFix" result="effect1_dropShadow_825_2188"/>
<feBlend mode="normal" in="SourceGraphic" in2="effect1_dropShadow_825_2188" result="shape"/>
</filter>
</defs>
</svg>
