<svg width="41" height="45" viewBox="0 0 41 45" fill="none" xmlns="http://www.w3.org/2000/svg">
<path d="M15.4454 44.8397L14.5753 37.6951C13.9952 37.4999 13.4064 37.2071 12.8088 36.8166C12.2099 36.4262 11.6566 36.0163 11.149 35.5868L5.00346 38.3978L0 29.0278L5.32977 24.6941C5.25725 24.3428 5.2123 23.9914 5.19489 23.64C5.17604 23.2886 5.16661 22.9373 5.16661 22.5859C5.16661 22.2736 5.17604 21.9417 5.19489 21.5903C5.2123 21.2389 5.25725 20.868 5.32977 20.4776L0 16.144L5.00346 6.8325L11.149 9.58495C11.6566 9.15549 12.2099 8.7557 12.8088 8.38558C13.4064 8.01391 13.9952 7.71094 14.5753 7.47669L15.4454 0.332031H25.4524L26.3225 7.47669C26.9752 7.74998 27.564 8.05217 28.089 8.38324C28.6154 8.71588 29.1506 9.11645 29.6944 9.58495L35.8944 6.8325L40.8978 16.144L35.5137 20.5362C35.5862 20.9266 35.6224 21.278 35.6224 21.5903V22.5859C35.6224 22.8982 35.613 23.2199 35.5941 23.551C35.5767 23.8836 35.5318 24.2647 35.4593 24.6941L40.789 29.0278L35.7856 38.3978L29.6944 35.5868C29.1506 36.0553 28.598 36.4653 28.0368 36.8166C27.474 37.168 26.9026 37.4608 26.3225 37.6951L25.4524 44.8397H15.4454ZM20.4489 29.6134C22.2618 29.6134 23.8027 28.9302 25.0717 27.5637C26.3407 26.1973 26.9752 24.538 26.9752 22.5859C26.9752 20.6338 26.3407 18.9745 25.0717 17.608C23.8027 16.2416 22.2618 15.5584 20.4489 15.5584C18.6361 15.5584 17.0951 16.2416 15.8261 17.608C14.5572 18.9745 13.9227 20.6338 13.9227 22.5859C13.9227 24.538 14.5572 26.1973 15.8261 27.5637C17.0951 28.9302 18.6361 29.6134 20.4489 29.6134ZM20.4489 26.0997C19.5425 26.0997 18.7724 25.7576 18.1386 25.0736C17.5034 24.3912 17.1858 23.5619 17.1858 22.5859C17.1858 21.6098 17.5034 20.7806 18.1386 20.0981C18.7724 19.4141 19.5425 19.0721 20.4489 19.0721C21.3553 19.0721 22.1254 19.4141 22.7592 20.0981C23.3944 20.7806 23.712 21.6098 23.712 22.5859C23.712 23.5619 23.3944 24.3912 22.7592 25.0736C22.1254 25.7576 21.3553 26.0997 20.4489 26.0997ZM18.2735 41.326H22.5699L23.3313 35.0598C24.4553 34.7474 25.4705 34.2984 26.3769 33.7128C27.2833 33.1272 28.1716 32.3854 29.0418 31.4874L34.4259 33.9471L36.6014 29.9648L31.8698 26.1582C32.0511 25.5335 32.1693 24.9284 32.2244 24.3428C32.2781 23.7571 32.3049 23.1715 32.3049 22.5859C32.3049 21.9612 32.2781 21.3662 32.2244 20.8009C32.1693 20.234 32.0511 19.6577 31.8698 19.0721L36.6014 15.207L34.4803 11.2247L28.9874 13.6843C28.2623 12.8645 27.3921 12.132 26.3769 11.4871C25.3617 10.8437 24.3465 10.3853 23.3313 10.112L22.6243 3.8458H18.3279L17.5665 10.112C16.4788 10.3853 15.4636 10.8148 14.5209 11.4004C13.5782 11.986 12.6718 12.7278 11.8016 13.6258L6.41748 11.2247L4.29645 15.207L8.97359 18.955C8.7923 19.5406 8.66541 20.1262 8.59289 20.7119C8.52038 21.2975 8.48412 21.9222 8.48412 22.5859C8.48412 23.2106 8.52038 23.8157 8.59289 24.4013C8.66541 24.987 8.7923 25.5726 8.97359 26.1582L4.29645 29.9648L6.41748 33.9471L11.8016 31.4874C12.6355 32.3854 13.5238 33.1272 14.4665 33.7128C15.4092 34.2984 16.4425 34.7474 17.5665 35.0598L18.2735 41.326Z" fill="black"/>
</svg>
