<svg width="42" height="46" viewBox="0 0 42 46" fill="none" xmlns="http://www.w3.org/2000/svg">
<path d="M20.769 45.0607C17.9184 45.0607 15.2306 44.4687 12.7058 43.2847C10.1809 42.1007 7.98183 40.5001 6.10854 38.4829C4.23526 36.4658 2.74884 34.1083 1.64931 31.4106C0.549769 28.7146 0 25.8098 0 22.6964C0 19.5829 0.549769 16.6782 1.64931 13.9822C2.74884 11.2844 4.23526 8.92695 6.10854 6.90978C7.98183 4.8926 10.1809 3.29202 12.7058 2.10802C15.2306 0.924029 17.9184 0.332031 20.769 0.332031C23.864 0.332031 26.7961 1.02226 29.5653 2.40271C32.3345 3.78491 34.6965 5.74771 36.6513 8.2911V2.04225H40.3164V15.3951H27.916V11.4484H34.33C32.6603 9.21199 30.6551 7.45792 28.3143 6.18622C25.9719 4.91453 23.4568 4.27868 20.769 4.27868C16.0044 4.27868 11.963 6.06519 8.64481 9.63822C5.32502 13.213 3.66513 17.5657 3.66513 22.6964C3.66513 27.827 5.32502 32.1788 8.64481 35.7519C11.963 39.3267 16.0044 41.114 20.769 41.114C25.045 41.114 28.781 39.6231 31.977 36.6412C35.1746 33.6593 37.0788 29.888 37.6897 25.3275H41.4159C40.8051 30.9843 38.5351 35.6878 34.6061 39.438C30.6755 43.1865 26.0631 45.0607 20.769 45.0607ZM28.0382 33.2865L18.9365 23.4857V9.54087H22.6016V21.907L30.6038 30.5239L28.0382 33.2865Z" fill="black"/>
</svg>
